<svg xmlns="http://www.w3.org/2000/svg" viewBox="0 0 360 280" fill="none"><g id="ButterflyBg"><g id="ButterflyBg__backdrop"><path id="Ellipse 29" d="M291 120.408C312.012 186.947 271 213 200 233S65 215.51 65 148.408c0-78 24-89 77-104s112-25 149 76z" fill="#302753"></path></g><g id="Butterfly"><g id="wings"><path id="wordmark (Stroke)" fill="#AF7CC0" fill-rule="evenodd" d="M197.82 176.3l-5.816-5.854 32.636-32.657 5.923 5.852.002.002c6.337 6.35 8.919 15.834 7.285 26.297-1.344 8.603-5.448 17.318-11.591 24.859-2.491 3.058-6.999 2.984-9.714.264L197.82 176.3zm-68.368-32.492l5.397-4.746 32.615 32.04-5.283 5.378-18.726 18.764c-2.715 2.721-7.223 2.794-9.714-.264-6.143-7.541-10.247-16.256-11.59-24.858-1.635-10.464.947-19.948 7.284-26.298l.017-.016zm100.61.337c6.144 6.157 8.693 15.396 7.086 25.686-1.322 8.46-5.365 17.061-11.44 24.518-2.194 2.693-6.206 2.67-8.66.211l-18.724-18.761-5.317-5.352 31.636-31.655 5.419 5.353zm-68.386 31.835l-18.724 18.762c-2.453 2.458-6.466 2.482-8.66-.211-6.075-7.458-10.118-16.058-11.439-24.519-1.608-10.29.941-19.529 7.085-25.685l4.885-4.295 31.636 31.079-4.783 4.869z" clip-rule="evenodd"></path><g id="wings inner"><g id="wordmark" fill="#DE99F6"><path d="M225.708 194.349c-2.194 2.693-6.206 2.67-8.66.211l-18.724-18.761-5.317-5.352 31.636-31.655 5.419 5.353c6.144 6.157 8.693 15.396 7.086 25.686-1.322 8.46-5.365 17.061-11.44 24.518zM142.952 194.742c-2.453 2.458-6.466 2.482-8.66-.211-6.075-7.458-10.118-16.058-11.439-24.519-1.608-10.29.941-19.529 7.085-25.685l4.885-4.295 31.636 31.079-4.783 4.869-18.724 18.762z"></path></g><g id="Group 513071" fill="#CF8EE5" fill-rule="evenodd" clip-rule="evenodd"><path id="Subtract" d="M136.069 191.864c2.194 2.693 6.206 2.67 8.66.211l18.724-18.762 2.577-2.623.429.421-4.783 4.869-18.724 18.762c-2.453 2.458-6.466 2.482-8.66-.211-6.075-7.458-10.118-16.058-11.439-24.519-1.412-9.038.383-17.266 5.004-23.306-3.285 5.697-4.442 12.869-3.228 20.639 1.322 8.461 5.365 17.062 11.44 24.519z"></path><path id="Subtract_2" d="M224.016 191.775c-2.194 2.693-6.206 2.67-8.66.211l-18.724-18.762-2.577-2.623-.429.421 4.783 4.869 18.724 18.762c2.454 2.458 6.466 2.482 8.66-.211 6.075-7.457 10.118-16.058 11.439-24.519 1.412-9.038-.383-17.266-5.004-23.306 3.285 5.697 4.442 12.869 3.228 20.639-1.322 8.461-5.365 17.062-11.44 24.519z"></path></g><g id="wordmark_2" fill="#A087FF"><path d="M240 109.204a44.812 44.812 0 01-13.168 31.675l-.001-.001-31.734 31.649a44.81 44.81 0 01.074-63.381l.001.001 27.282-27.209c2.459-2.452 6.482-2.47 8.568.307A44.815 44.815 0 01240 109.204z"></path><path d="M133.168 141.06a44.808 44.808 0 01-4.19-58.633c2.086-2.777 6.109-2.76 8.568-.307l27.282 27.209.001-.001a44.806 44.806 0 01.074 63.38l-31.734-31.649-.001.001z"></path></g><g id="Group 513070" fill="#8D76E4" fill-rule="evenodd" clip-rule="evenodd"><path id="Subtract_3" d="M121.777 107.607a44.806 44.806 0 0013.168 31.675l.001-.001 31.683 31.599a44.366 44.366 0 01-1.726 1.828l-31.734-31.649-.001.001a44.808 44.808 0 01-4.19-58.633c.413-.55.903-.991 1.441-1.325a44.798 44.798 0 00-8.642 26.505z"></path><path id="Subtract_4" d="M238.405 107.607a44.806 44.806 0 01-13.168 31.675l-.001-.001-31.683 31.599a44.366 44.366 0 001.726 1.828l31.734-31.649.001.001a44.812 44.812 0 0013.168-31.675 44.815 44.815 0 00-8.978-26.958 5.275 5.275 0 00-1.441-1.325 44.811 44.811 0 018.642 26.505z"></path></g></g><path id="wordmark (Stroke)_2" fill="#7C66CE" fill-rule="evenodd" d="M195.097 172.527l-.06-.06a44.812 44.812 0 01-13.034-31.646 44.812 44.812 0 0113.168-31.675l.001.001 27.282-27.209c2.459-2.452 6.482-2.47 8.568.307A44.815 44.815 0 01240 109.204a44.812 44.812 0 01-12.669 31.169c-.095.097-.19.195-.286.291l-.213.215-.001-.001-31.734 31.649zm31.732-30.643l-31.733 31.648-.502-.503a45.521 45.521 0 01-13.302-32.209 45.527 45.527 0 0113.378-32.178l.503-.502.001.001 26.778-26.706c2.715-2.707 7.252-2.794 9.638.383a45.52 45.52 0 01-4.256 59.564l-.504.503-.001-.001zm-93.659.182l-.504-.502A45.52 45.52 0 01128.41 82c2.386-3.178 6.923-3.091 9.638-.384l26.779 26.708.001-.001.502.501a45.525 45.525 0 0113.378 32.178 45.521 45.521 0 01-13.302 32.209l-.502.503-31.733-31.649-.001.001zm32.158-32.232a44.808 44.808 0 01-.365 62.814l-.06.06-31.734-31.649-.001.001-.202-.203A44.812 44.812 0 01120 109.385a44.808 44.808 0 018.978-26.958c2.086-2.777 6.109-2.76 8.568-.307l27.282 27.209.001-.001.104.104.18.182.215.22z" clip-rule="evenodd"></path></g><g id="body"><g id="Body´"><path id="Vector 5 (Stroke)" fill="#CA99DB" fill-rule="evenodd" d="M184.809 194.434c-1.8 1.452-3.716 2.314-5.567 2.314-1.92 0-3.746-1.146-5.359-2.867-1.627-1.736-3.13-4.152-4.41-6.922-2.56-5.537-4.293-12.627-4.293-18.873 0-6.176.851-16.897 2.957-26.091 1.052-4.592 2.428-8.853 4.197-11.983 1.749-3.095 4.012-5.303 6.908-5.303 2.843 0 5.221 1.924 7.157 4.767 1.946 2.86 3.553 6.8 4.833 11.183 2.562 8.773 3.864 19.508 3.864 27.427 0 7.985-2.186 15.098-5.222 20.232-1.518 2.567-3.259 4.658-5.065 6.116zm9.577-26.348c0 15.719-8.615 27.951-15.144 27.951-6.53 0-13.351-15.686-13.351-27.951 0-12.264 3.388-42.666 13.351-42.666 9.963 0 15.144 26.947 15.144 42.666z" clip-rule="evenodd"></path><g id="Group 164"><mask id="butterflyBody_z7kzbdv5x_mask0_12_839" style="mask-type:alpha" width="30" height="72" x="165" y="125" maskUnits="userSpaceOnUse"><path id="Vector 5" fill="#EFC7FD" d="M179.242 196.037c6.529 0 15.144-12.232 15.144-27.951 0-15.719-5.181-42.666-15.144-42.666-9.963 0-13.351 30.402-13.351 42.666 0 12.265 6.821 27.951 13.351 27.951z"></path></mask><g mask="url(#butterflyBody_z7kzbdv5x_mask0_12_839)"><path id="Vector 10" fill="#F5D7FF" d="M179.242 196.037c6.529 0 15.144-12.232 15.144-27.951 0-15.719-5.181-42.666-15.144-42.666-9.963 0-13.351 30.402-13.351 42.666 0 12.265 6.821 27.951 13.351 27.951z"></path><g id="shadow"><path id="Subtract_5" fill="#ECC1FA" fill-rule="evenodd" d="M184.74 193.565c-.966.455-1.92.694-2.833.694-6.53 0-13.351-15.686-13.351-27.95 0-10.358 2.416-33.65 9.168-40.644-8.792 2.903-11.833 30.802-11.833 42.421 0 12.265 6.821 27.951 13.351 27.951 1.751 0 3.653-.88 5.498-2.472z" clip-rule="evenodd"></path></g><g id="stripes" fill="#CA99DB" fill-rule="evenodd" clip-rule="evenodd"><path id="Ellipse 1 (Stroke)" d="M164.705 133.102c4.074 2.813 9.445 4.545 15.541 4.545s11.34-1.732 15.273-4.542l.413.578c-4.064 2.904-9.455 4.675-15.686 4.675-6.23 0-11.744-1.77-15.945-4.671l.404-.585z"></path><path id="Ellipse 2 (Stroke)" d="M164.705 138.358c4.074 2.813 9.445 4.545 15.541 4.545s11.34-1.732 15.273-4.542l.413.579c-4.064 2.904-9.455 4.674-15.686 4.674-6.23 0-11.744-1.77-15.945-4.671l.404-.585z"></path><path id="Ellipse 3 (Stroke)" d="M164.705 143.614c4.074 2.813 9.445 4.545 15.541 4.545s11.34-1.731 15.273-4.542l.413.579c-4.064 2.904-9.455 4.674-15.686 4.674-6.23 0-11.744-1.77-15.945-4.671l.404-.585z"></path><path id="Ellipse 4 (Stroke)" d="M164.705 148.87c4.074 2.814 9.445 4.546 15.541 4.546s11.34-1.732 15.273-4.542l.413.578c-4.064 2.904-9.455 4.675-15.686 4.675-6.23 0-11.744-1.77-15.945-4.671l.404-.586z"></path><path id="Ellipse 5 (Stroke)" d="M164.705 154.127c4.074 2.813 9.445 4.545 15.541 4.545s11.34-1.732 15.273-4.542l.413.579c-4.064 2.904-9.455 4.674-15.686 4.674-6.23 0-11.744-1.77-15.945-4.671l.404-.585z"></path><path id="Ellipse 6 (Stroke)" d="M164.705 159.383c4.074 2.813 9.445 4.545 15.541 4.545s11.34-1.731 15.273-4.542l.413.579c-4.064 2.904-9.455 4.674-15.686 4.674-6.23 0-11.744-1.77-15.945-4.671l.404-.585z"></path><path id="Ellipse 7 (Stroke)" d="M164.705 164.639c4.074 2.813 9.445 4.546 15.541 4.546s11.34-1.732 15.273-4.542l.413.578c-4.064 2.904-9.455 4.675-15.686 4.675-6.23 0-11.744-1.77-15.945-4.671l.404-.586z"></path><path id="Ellipse 8 (Stroke)" d="M164.705 169.896c4.074 2.813 9.445 4.545 15.541 4.545s11.34-1.732 15.273-4.542l.413.579c-4.064 2.904-9.455 4.674-15.686 4.674-6.23 0-11.744-1.77-15.945-4.671l.404-.585z"></path><path id="Ellipse 9 (Stroke)" d="M164.705 175.152c4.074 2.813 9.445 4.545 15.541 4.545s11.34-1.732 15.273-4.542l.413.579c-4.064 2.904-9.455 4.674-15.686 4.674-6.23 0-11.744-1.77-15.945-4.671l.404-.585z"></path><path id="Ellipse 10 (Stroke)" d="M164.705 180.408c4.074 2.813 9.445 4.546 15.541 4.546s11.34-1.732 15.273-4.542l.413.578c-4.064 2.904-9.455 4.675-15.686 4.675-6.23 0-11.744-1.771-15.945-4.671l.404-.586z"></path><path id="Ellipse 11 (Stroke)" d="M164.705 185.665c4.074 2.813 9.445 4.545 15.541 4.545s11.34-1.732 15.273-4.542l.413.579c-4.064 2.903-9.455 4.674-15.686 4.674-6.23 0-11.744-1.77-15.945-4.671l.404-.585z"></path><path id="Ellipse 12 (Stroke)" d="M164.705 190.921c4.074 2.813 9.445 4.545 15.541 4.545s11.34-1.732 15.273-4.542l.413.579c-4.064 2.904-9.455 4.674-15.686 4.674-6.23 0-11.744-1.77-15.945-4.671l.404-.585z"></path></g></g></g></g><g id="head"><g id="head_contour" fill="#CA99DB" fill-rule="evenodd" clip-rule="evenodd"><path id="Ellipse 1 (Stroke)_2" d="M204.505 115.235c0 10.827-9.995 19.835-24.086 19.835-14.064 0-24.716-8.985-24.716-19.835 0-5.357 2.422-11.592 6.555-16.485 4.14-4.903 10.061-8.533 17.105-8.533 7.034 0 13.319 3.62 17.826 8.51 4.499 4.88 7.316 11.121 7.316 16.508zm-24.086 19.124c13.813 0 23.376-8.795 23.376-19.124 0-10.328-10.863-24.307-24.432-24.307-13.568 0-22.949 13.979-22.949 24.307 0 10.329 10.191 19.124 24.005 19.124z"></path><path id="Vector (Stroke)" d="M176.099 100.844l-3.278 1.31-.134-.887a21.24 21.24 0 00-4.642-10.383l-.006-.007-.005-.006a18.45 18.45 0 00-4.442-4.058l-.006-.003-.005-.004a8.67 8.67 0 00-4.843-1.49 3.02 3.02 0 01-3.162-2.848 3.019 3.019 0 012.851-3.178l.019-.001h.301l.028.002a14.316 14.316 0 017.908 3.147 23.414 23.414 0 015.179 5.692 25.56 25.56 0 014.197 12.193l.04.521zm-4.831-12.324a22.693 22.693 0 00-5.029-5.527A13.6 13.6 0 00158.72 80h-.254m14.804 20.443l-.144.058.264.66.703-.106-.026-.165-.677.271a21.93 21.93 0 00-.12-.718zm-2.002-11.923a24.853 24.853 0 014.082 11.858l-4.082-11.858z"></path><path id="Vector (Stroke)_2" d="M183.454 101.27l3.278 1.31.134-.888a21.241 21.241 0 014.642-10.382l.005-.007.006-.007a18.432 18.432 0 014.442-4.057l.005-.004.006-.004a8.67 8.67 0 014.843-1.49 3.02 3.02 0 003.162-2.847 3.02 3.02 0 00-2.851-3.179h-.321l-.027.001a14.314 14.314 0 00-7.908 3.147 23.392 23.392 0 00-5.179 5.692 25.549 25.549 0 00-4.197 12.194l-.04.521zm4.831-12.325a22.69 22.69 0 015.028-5.526 13.604 13.604 0 017.52-2.994h.254m-14.804 20.444l.143.057-.263.661-.703-.106.026-.165.677.271c.036-.241.076-.48.12-.718zm2.002-11.924a24.854 24.854 0 00-4.083 11.858l4.083-11.858z"></path></g><g id="head_inner"><g id="Union"><mask id="butterflyBody_z7kzbdv5x_path-29-inside-1_12_839" fill="#fff"><path fill-rule="evenodd" d="M173.17 91.937a24.976 24.976 0 00-1.902-3.417 22.693 22.693 0 00-5.029-5.527A13.6 13.6 0 00158.72 80h-.254a2.308 2.308 0 00-2.184 2.307 2.309 2.309 0 002.438 2.298c1.875 0 3.707.561 5.259 1.612a19.147 19.147 0 014.613 4.214c.69.833 1.315 1.713 1.871 2.632-8.6 4.308-14.049 14.3-14.049 22.172 0 10.329 10.191 19.124 24.005 19.124 13.813 0 23.376-8.795 23.376-19.124 0-7.675-5.999-17.366-14.649-21.838a22.084 22.084 0 011.814-2.541 19.17 19.17 0 014.614-4.214 9.38 9.38 0 015.259-1.611 2.31 2.31 0 002.434-2.177 2.308 2.308 0 00-2.18-2.429h-.254a13.598 13.598 0 00-7.519 2.994 22.695 22.695 0 00-5.029 5.526 24.923 24.923 0 00-1.832 3.266c-2.241-.82-4.621-1.283-7.09-1.283-2.18 0-4.251.361-6.193 1.01z" clip-rule="evenodd"></path></mask><path fill="#F5D7FF" fill-rule="evenodd" d="M173.17 91.937a24.976 24.976 0 00-1.902-3.417 22.693 22.693 0 00-5.029-5.527A13.6 13.6 0 00158.72 80h-.254a2.308 2.308 0 00-2.184 2.307 2.309 2.309 0 002.438 2.298c1.875 0 3.707.561 5.259 1.612a19.147 19.147 0 014.613 4.214c.69.833 1.315 1.713 1.871 2.632-8.6 4.308-14.049 14.3-14.049 22.172 0 10.329 10.191 19.124 24.005 19.124 13.813 0 23.376-8.795 23.376-19.124 0-7.675-5.999-17.366-14.649-21.838a22.084 22.084 0 011.814-2.541 19.17 19.17 0 014.614-4.214 9.38 9.38 0 015.259-1.611 2.31 2.31 0 002.434-2.177 2.308 2.308 0 00-2.18-2.429h-.254a13.598 13.598 0 00-7.519 2.994 22.695 22.695 0 00-5.029 5.526 24.923 24.923 0 00-1.832 3.266c-2.241-.82-4.621-1.283-7.09-1.283-2.18 0-4.251.361-6.193 1.01z" clip-rule="evenodd"></path><path fill="#F5D7FF" d="M171.268 88.52l-1.681 1.084.007.011.008.012 1.666-1.107zm1.902 3.417l-1.819.833.748 1.633 1.704-.569-.633-1.897zm-6.931-8.944l-1.259 1.554.011.009.011.009 1.237-1.572zM158.72 80l.154-1.994-.077-.006h-.077v2zm-.254 0v-2h-.055l-.055.003.11 1.997zm-2.184 2.307l2-.006-2 .006zm.004.122l1.997-.11-1.997.11zm2.434 2.176v-2h-.055l-.054.003.109 1.997zm5.259 1.612l-1.121 1.656.015.01.016.01 1.09-1.676zm.303.201l1.122-1.656-1.122 1.656zm4.31 4.013l-1.571 1.237.015.019.016.019 1.54-1.275zm1.871 2.632l.896 1.788 1.937-.97-1.122-1.853-1.711 1.035zm18.683.334l-1.706-1.044-1.122 1.833 1.909.987.919-1.776zm1.814-2.541l1.541 1.275.016-.019.015-.019-1.572-1.237zm4.614-4.214l1.09 1.677.015-.01.016-.01-1.121-1.657zm5.259-1.611l.109-1.997-.055-.003h-.054v2zm2.434-2.177l-1.997-.11 1.997.11zm-2.18-2.429l.11-1.997-.055-.003h-.055v2zm-.254 0v-2h-.077l-.077.006.154 1.994zm-7.519 2.994l1.237 1.571.011-.009.011-.008-1.259-1.554zm-5.029 5.526l1.666 1.107.008-.012.007-.011-1.681-1.084zm-1.832 3.266l-.687 1.878 1.725.631.775-1.665-1.813-.844zm-16.851-2.584a22.9 22.9 0 011.749 3.143l3.638-1.665a26.854 26.854 0 00-2.056-3.693l-3.331 2.215zm-4.6-5.062a20.693 20.693 0 014.585 5.038l3.361-2.167a24.688 24.688 0 00-5.471-6.014l-2.475 3.143zm-6.435-2.57a11.601 11.601 0 016.413 2.552l2.518-3.108a15.599 15.599 0 00-8.624-3.433l-.307 3.988zm-.101.005h.254v-4h-.254v4zm-.184.301c0-.156.125-.295.293-.304l-.219-3.994a4.309 4.309 0 00-4.074 4.31l4-.012zm.001.018l-.001-.018-4 .011c.001.076.003.151.007.227l3.994-.22zm.328.29a.309.309 0 01-.328-.29l-3.994.22a4.31 4.31 0 004.541 4.063l-.219-3.994zm6.489 1.952a11.378 11.378 0 00-6.38-1.956v4c1.476 0 2.917.442 4.138 1.268l2.242-3.312zm.304.201c-.111-.075-.223-.149-.335-.222l-2.18 3.354.272.18 2.243-3.312zm4.76 4.431a21.161 21.161 0 00-4.76-4.43l-2.243 3.311a17.16 17.16 0 013.86 3.594l3.143-2.475zm2.01 2.835a23.961 23.961 0 00-2.041-2.873l-3.081 2.55a19.94 19.94 0 011.7 2.394l3.422-2.072zm-13.76 23.207c0-7.141 5.045-16.427 12.945-20.384l-1.792-3.576c-9.299 4.658-15.153 15.357-15.153 23.96h4zm22.005 17.124c-13.107 0-22.005-8.26-22.005-17.124h-4c0 11.793 11.485 21.124 26.005 21.124v-4zm21.376-17.124c0 8.927-8.345 17.124-21.376 17.124v4c14.595 0 25.376-9.394 25.376-21.124h-4zm-13.568-20.062c3.981 2.059 7.397 5.347 9.814 9.038 2.427 3.707 3.754 7.672 3.754 11.024h4c0-4.323-1.673-9.04-4.408-13.216-2.745-4.191-6.654-7.985-11.323-10.399l-1.837 3.553zm2.625-.732a19.922 19.922 0 011.649-2.31l-3.081-2.55a23.883 23.883 0 00-1.98 2.772l3.412 2.088zm1.68-2.348a17.155 17.155 0 014.132-3.774l-2.18-3.354a21.16 21.16 0 00-5.095 4.654l3.143 2.474zm4.163-3.794a7.38 7.38 0 014.138-1.268v-4c-2.275 0-4.497.68-6.38 1.955l2.242 3.313zm4.028-1.271a4.31 4.31 0 004.541-4.064l-3.994-.22a.309.309 0 01-.328.29l-.219 3.994zm4.541-4.064a4.308 4.308 0 00-4.067-4.536l-.22 3.994c.175.01.302.158.293.323l3.994.22zm-4.177-4.539h-.254v4h.254v-4zm-.408.006a15.605 15.605 0 00-8.625 3.434l2.519 3.108a11.598 11.598 0 016.413-2.553l-.307-3.989zm-8.603 3.416a24.712 24.712 0 00-5.472 6.014l3.362 2.168a20.676 20.676 0 014.585-5.039l-2.475-3.142zm-5.456 5.99a26.755 26.755 0 00-1.98 3.53l3.626 1.688a22.877 22.877 0 011.685-3.003l-3.331-2.214zm-7.257 5.091c2.217 0 4.364.416 6.403 1.161l1.374-3.756c-2.443-.894-5.055-1.405-7.777-1.405v4zm-5.56.907a17.478 17.478 0 015.56-.907v-4c-2.403 0-4.688.398-6.826 1.112l1.266 3.794z" mask="url(#butterflyBody_z7kzbdv5x_path-29-inside-1_12_839)"></path></g><g id="ButterflyFaceSad"><g id="face-sad" fill-rule="evenodd" clip-rule="evenodd"><path id="mouth-sad" fill="#110E18" d="M176.912 121.079c0-.399.092-.786.248-1.145a3.43 3.43 0 011.105-1.38 2.987 2.987 0 011.767-.598c.445 0 .867.107 1.241.284a3.37 3.37 0 011.349 1.177c.326.492.529 1.064.53 1.662a.693.693 0 11-1.386 0c0-.181-.044-.386-.133-.59a2.046 2.046 0 00-.654-.816 1.602 1.602 0 00-.947-.329c-.225 0-.441.053-.648.15-.31.145-.592.398-.787.693-.197.293-.3.622-.298.892a.694.694 0 01-1.387 0"></path><g id="blush" fill="#C49FE2"><path id="Oval" d="M169.631 118.303a1.04 1.04 0 100-2.08 1.04 1.04 0 000 2.08z"></path><path id="Oval_2" d="M190.433 118.303a1.04 1.04 0 10-.001-2.081 1.04 1.04 0 00.001 2.081z"></path></g><g id="eyes" fill="#110E18"><path id="Oval 3" d="M171.191 114.834a1.561 1.561 0 100-3.122 1.561 1.561 0 000 3.122z"></path><path id="Oval 3_2" d="M189.22 114.834a1.56 1.56 0 10-.002-3.122 1.56 1.56 0 00.002 3.122z"></path></g></g></g><g id="shadow_2"><path id="Subtract_6" fill="#ECC1FA" fill-rule="evenodd" d="M181.75 134.332c-13.13-.545-22.671-9.104-22.671-19.097 0-9.987 8.771-23.388 21.619-24.262a19.84 19.84 0 00-1.335-.045c-13.568 0-22.949 13.979-22.949 24.307 0 10.329 10.191 19.124 24.005 19.124a32.5 32.5 0 001.331-.027z" clip-rule="evenodd"></path></g><path id="Subtract_7" fill="#ECC1FA" fill-rule="evenodd" d="M157.463 80.29a2.305 2.305 0 001.257 4.315c1.875 0 3.707.561 5.259 1.612a19.144 19.144 0 014.613 4.214 21.929 21.929 0 011.9 2.68l1.116-.502a22.037 22.037 0 00-2.127-3.067 19.17 19.17 0 00-4.614-4.214 9.378 9.378 0 00-5.258-1.612 2.31 2.31 0 01-2.435-2.176 2.292 2.292 0 01.289-1.25z" clip-rule="evenodd"></path></g></g></g></g><g id="butterflyBgSearch"><g id="plus" stroke="#595178" stroke-linecap="round" stroke-miterlimit="10" stroke-width="2"><path id="Vector" d="M60 75h-8m4 4v-8"></path><path id="Vector_2" d="M188 61h-8m4 4v-8"></path><path id="Vector_3" d="M276 155h-8m4 4v-8"></path><path id="Vector_4" d="M234 249h-8m4 4v-8"></path></g><g id="circles" stroke="#595178" stroke-width="2"><circle id="Ellipse 25" cx="292" cy="101" r="3"></circle><circle id="Ellipse 29_2"  cx="160" cy="217" r="3"></circle><circle id="Ellipse 30" cx="110" cy="248" r="3"></circle><circle id="Ellipse 28" cx="87" cy="145" r="3"></circle><circle id="Ellipse 26" cx="147" cy="43" r="3"></circle><circle id="Ellipse 24" cx="36" cy="139" r="3"></circle></g><g id="elements" fill="#595178"><path id="Shape" d="M279.322 196.137c-3.314-5.224-10.234-6.772-15.458-3.459-5.223 3.314-6.771 10.235-3.457 15.459a11.154 11.154 0 005.664 4.539l-2.327 10.407a1.4 1.4 0 102.732.612l2.328-10.407a11.152 11.152 0 007.061-1.693c5.223-3.314 6.771-10.235 3.457-15.458zm-13.958-1.094a8.401 8.401 0 119 14.188 8.401 8.401 0 01-9-14.188z"></path><path id="Shape_2" d="M84.201 44C78.015 44 73 49.014 73 55.2c0 6.186 5.015 11.2 11.201 11.2 2.588 0 4.97-.877 6.867-2.35l7.542 7.54a1.4 1.4 0 001.98-1.98l-7.541-7.54a11.151 11.151 0 002.353-6.87c0-6.186-5.015-11.2-11.2-11.2zm-8.4 11.2a8.4 8.4 0 018.4-8.4 8.4 8.4 0 110 16.8 8.4 8.4 0 01-8.4-8.4z"></path><g id="page"><path id="Vector_5" d="M97.798 189.478a.811.811 0 00.017-.219c-.002-.027-.001-.054-.007-.081a.587.587 0 00-.103-.247l-5.156-6.723a.565.565 0 00-.213-.164c-.023-.011-.047-.018-.072-.026a.744.744 0 00-.224-.042c-.015-.001-.028-.009-.046-.009l-23.03.31c-.489.007-.994.393-1.127.865L55.77 225.76c-.133.471.156.847.645.84l2.657-.035-.724 2.557c-.133.471.156.847.645.84l30.116-.406c.49-.006.994-.392 1.128-.864l9.894-34.947c.064-.227.033-.442-.089-.599l-2.389-3.115.141-.5c.006-.019 0-.035.004-.053zm-2.786-.759l-4.063.055 1.107-3.909 2.956 3.854zm-25.645-4.749l21.259-.286-1.69 5.966c-.133.472.156.847.645.841l6.2-.084-9.653 34.095-28.345.382 11.584-40.914zm28.892 10.152l-9.553 33.742-28.345.381.483-1.704 25.687-.346c.49-.007.994-.393 1.128-.865l9.311-32.889 1.289 1.681z"></path><path id="Vector_6" d="M66.232 204.391l23.03-.31c.49-.007.994-.393 1.128-.864.133-.472-.156-.847-.645-.841l-23.03.31c-.49.007-.994.393-1.127.865-.134.471.155.847.644.84z"></path><path id="Vector_7" d="M64.784 209.506l23.03-.31c.49-.007.994-.393 1.128-.864.133-.472-.156-.847-.645-.841l-23.03.311c-.49.006-.994.392-1.127.864-.134.471.155.847.644.84z"></path><path id="Vector_8" d="M86.367 214.31c.488-.006.993-.393 1.127-.864.133-.471-.156-.847-.645-.84l-23.03.31c-.49.006-.994.393-1.128.864-.133.472.156.847.645.841l23.031-.311z"></path><path id="Vector_9" d="M67.68 199.276l10.63-.143c.489-.007.994-.393 1.127-.864.134-.472-.156-.847-.644-.841l-10.63.143c-.489.007-.993.393-1.127.865-.133.471.155.847.644.84z"></path></g><g id="pages"><path id="Vector_10" d="M272.486 43.325a.86.86 0 00.109-.19c.009-.026.021-.05.028-.076a.578.578 0 00.012-.268l-1.788-8.282a.572.572 0 00-.123-.239c-.016-.02-.035-.036-.054-.054a.757.757 0 00-.184-.134c-.014-.007-.022-.02-.038-.027l-20.955-9.56c-.445-.204-1.066-.07-1.388.299L218.984 58.17c-.322.369-.221.832.224 1.035l2.418 1.103-1.747 2.002c-.322.37-.222.833.223 1.036l27.402 12.502c.445.203 1.067.07 1.389-.3l23.878-27.368c.155-.178.219-.386.176-.58l-.829-3.837.342-.391c.012-.015.015-.032.026-.047zm-2.195-1.876l-3.697-1.686 2.671-3.062 1.026 4.748zm-21.157-15.252l19.343 8.825-4.077 4.672c-.322.37-.221.833.224 1.036l5.641 2.574-23.296 26.7-25.79-11.767 27.955-32.04zm21.784 21.524l-23.055 26.424-25.79-11.767 1.165-1.335 23.372 10.664c.445.203 1.066.07 1.388-.3l22.473-25.757.447 2.071z"></path><path id="Vector_11" d="M237.574 43.32l20.955 9.56c.444.204 1.066.07 1.388-.3.322-.368.221-.831-.224-1.034l-20.954-9.56c-.445-.204-1.066-.07-1.389.299-.322.37-.221.832.224 1.035z"></path><path id="Vector_12" d="M234.079 47.326l20.955 9.56c.444.203 1.066.07 1.388-.3.322-.368.221-.832-.224-1.035l-20.954-9.56c-.445-.203-1.066-.07-1.389.3-.322.369-.221.832.224 1.035z"></path><path id="Vector_13" d="M251.539 60.892c.445.202 1.066.069 1.389-.3.322-.37.221-.832-.224-1.035l-20.955-9.56c-.444-.204-1.066-.07-1.388.299-.322.37-.221.832.224 1.035l20.954 9.561z"></path><path id="Vector_14" d="M241.069 39.315l9.672 4.412c.444.203 1.066.07 1.388-.3.322-.369.221-.832-.224-1.035l-9.671-4.413c-.445-.202-1.066-.069-1.388.3-.322.37-.221.834.223 1.036z"></path></g></g></g></g></svg>