<?xml version="1.0" encoding="UTF-8" standalone="no" ?>
<!DOCTYPE svg PUBLIC "-//W3C//DTD SVG 1.1//EN" "http://www.w3.org/Graphics/SVG/1.1/DTD/svg11.dtd">
<svg xmlns="http://www.w3.org/2000/svg" xmlns:xlink="http://www.w3.org/1999/xlink" version="1.1" width="379.3894441626687" height="382.9965966613245" viewBox="167.9054629904639 183.70391091128658 379.3894441626687 382.9965966613245" xml:space="preserve">
<desc>Created with Fabric.js 5.3.0</desc>
<defs>
</defs>
<g transform="matrix(1 0 0 1 357.6001850718 375.2022092419)" id="V8FMHo24bj6K93N3NWCHr"  >
<path style="stroke: rgb(0,0,0); stroke-width: 0; stroke-dasharray: none; stroke-linecap: butt; stroke-dashoffset: 0; stroke-linejoin: miter; stroke-miterlimit: 4; fill: rgb(186,230,253); fill-opacity: 0.5; fill-rule: nonzero; opacity: 1;"  transform=" translate(-189.694721011, -191.4982981934)" d="M 252.72347 238.40667 L 368.44674 171.32072 L 299.34821 285.70227 L 148.74024 366.20541000000003 z M 254.17489 225.32492 L 234.71996000000001 155.55552999999998 L 62.30906000000002 42.85112999999997 L 166.83887000000001 3.2398299999999693 C 181.30245000000002 -2.241110000000031 197.48961000000003 -0.7088400000000306 210.66787000000002 7.3886399999999695 L 344.34134000000006 89.52534999999996 C 352.49638000000004 94.53683999999996 359.10305000000005 101.71030999999996 363.4279000000001 110.24935999999997 L 377.74025000000006 138.52711999999997 C 381.4240300000001 145.80576999999997 378.74045000000007 154.69447999999997 371.64428000000004 158.71856999999997 z M 223.98621 163.3625 L 243.44114 229.77759000000003 L 131.74054999999998 368.75390000000004 C 129.33080999999999 371.75206000000003 126.12807999999998 374.01383000000004 122.49659999999999 375.28196 L 109.29410999999999 379.89235 C 94.34137999999999 385.11394 77.87042999999998 383.70114 64.02534999999999 376.00943 L 57.75842999999999 372.52781 C 44.99286999999999 365.43583 36.27265999999999 352.78812 34.183559999999986 338.33504999999997 C 24.684719999999984 272.61888999999996 11.301919999999985 179.53940999999998 5.286009999999987 139.21154999999996 C -1.422590000000013 94.24023999999996 -2.0934400000000135 84.77702999999997 5.286009999999987 65.99295999999995 C 12.665459999999987 47.208889999999954 45.53757999999999 46.63292999999996 45.53757999999999 46.63292999999996 z" stroke-linecap="round" />
</g>
</svg>